<svg width="40" height="40" viewBox="0 0 40 40" fill="none" xmlns="http://www.w3.org/2000/svg">
<path d="M15.1333 20.3502L17.6333 17.8502C17.7895 17.6952 17.9135 17.5109 17.9981 17.3078C18.0828 17.1047 18.1263 16.8868 18.1263 16.6668C18.1263 16.4468 18.0828 16.229 17.9981 16.0259C17.9135 15.8228 17.7895 15.6384 17.6333 15.4835L15.1333 12.9835C14.8195 12.6697 14.3938 12.4933 13.95 12.4933C13.5062 12.4933 13.0805 12.6697 12.7667 12.9835C12.4528 13.2973 12.2765 13.723 12.2765 14.1668C12.2765 14.6107 12.4528 15.0363 12.7667 15.3502L14.1 16.6668L12.7667 17.9835C12.6104 18.1384 12.4864 18.3228 12.4018 18.5259C12.3172 18.729 12.2737 18.9468 12.2737 19.1668C12.2737 19.3869 12.3172 19.6047 12.4018 19.8078C12.4864 20.0109 12.6104 20.1952 12.7667 20.3502C12.9224 20.5046 13.1071 20.6268 13.3101 20.7098C13.5132 20.7927 13.7306 20.8348 13.95 20.8335C14.1693 20.8348 14.3868 20.7927 14.5898 20.7098C14.7929 20.6268 14.9776 20.5046 15.1333 20.3502ZM13.9333 25.5502C13.5974 25.8323 13.3862 26.2355 13.3457 26.6723C13.3051 27.1091 13.4384 27.5443 13.7167 27.8835C13.8566 28.0523 14.0284 28.1918 14.2223 28.294C14.4162 28.3963 14.6284 28.4593 14.8467 28.4794C15.065 28.4995 15.2851 28.4764 15.4945 28.4113C15.7038 28.3462 15.8982 28.2405 16.0667 28.1002C17.1808 27.2019 18.5688 26.712 20 26.712C21.4311 26.712 22.8192 27.2019 23.9333 28.1002C24.1017 28.2405 24.2962 28.3462 24.5055 28.4113C24.7149 28.4764 24.935 28.4995 25.1533 28.4794C25.3716 28.4593 25.5837 28.3963 25.7777 28.294C25.9716 28.1918 26.1434 28.0523 26.2833 27.8835C26.5616 27.5443 26.6949 27.1091 26.6543 26.6723C26.6137 26.2355 26.4026 25.8323 26.0667 25.5502C24.3469 24.1678 22.2065 23.4142 20 23.4142C17.7935 23.4142 15.6531 24.1678 13.9333 25.5502ZM27.6333 12.9835C27.4784 12.8273 27.294 12.7033 27.0909 12.6187C26.8878 12.5341 26.67 12.4905 26.45 12.4905C26.23 12.4905 26.0121 12.5341 25.809 12.6187C25.6059 12.7033 25.4216 12.8273 25.2667 12.9835L22.7667 15.4835C22.6104 15.6384 22.4865 15.8228 22.4018 16.0259C22.3172 16.229 22.2737 16.4468 22.2737 16.6668C22.2737 16.8868 22.3172 17.1047 22.4018 17.3078C22.4865 17.5109 22.6104 17.6952 22.7667 17.8502L25.2667 20.3502C25.4224 20.5046 25.6071 20.6268 25.8101 20.7098C26.0132 20.7927 26.2306 20.8348 26.45 20.8335C26.6693 20.8348 26.8868 20.7927 27.0898 20.7098C27.2929 20.6268 27.4776 20.5046 27.6333 20.3502C27.7895 20.1952 27.9135 20.0109 27.9981 19.8078C28.0828 19.6047 28.1263 19.3869 28.1263 19.1668C28.1263 18.9468 28.0828 18.729 27.9981 18.5259C27.9135 18.3228 27.7895 18.1384 27.6333 17.9835L26.3167 16.6668L27.6333 15.3502C27.7895 15.1952 27.9135 15.0109 27.9981 14.8078C28.0828 14.6047 28.1263 14.3868 28.1263 14.1668C28.1263 13.9468 28.0828 13.729 27.9981 13.5259C27.9135 13.3228 27.7895 13.1384 27.6333 12.9835ZM20 3.3335C16.7036 3.3335 13.4813 4.31098 10.7405 6.14234C7.99966 7.97369 5.86346 10.5767 4.60199 13.6221C3.34053 16.6675 3.01048 20.0187 3.65357 23.2517C4.29665 26.4847 5.884 29.4544 8.21487 31.7853C10.5457 34.1162 13.5155 35.7035 16.7485 36.3466C19.9815 36.9897 23.3326 36.6596 26.378 35.3982C29.4235 34.1367 32.0265 32.0005 33.8578 29.2597C35.6892 26.5188 36.6667 23.2965 36.6667 20.0002C36.6667 17.8115 36.2356 15.6442 35.398 13.6221C34.5604 11.6 33.3327 9.76269 31.7851 8.21505C30.2375 6.66741 28.4001 5.43975 26.378 4.60217C24.356 3.76459 22.1887 3.3335 20 3.3335ZM20 33.3335C17.3629 33.3335 14.785 32.5515 12.5924 31.0864C10.3997 29.6213 8.69076 27.539 7.68159 25.1026C6.67243 22.6663 6.40838 19.9854 6.92285 17.399C7.43732 14.8125 8.7072 12.4368 10.5719 10.5721C12.4366 8.70737 14.8124 7.4375 17.3988 6.92303C19.9852 6.40856 22.6661 6.6726 25.1024 7.68177C27.5388 8.69094 29.6212 10.3999 31.0862 12.5926C32.5513 14.7852 33.3333 17.3631 33.3333 20.0002C33.3333 23.5364 31.9286 26.9278 29.4281 29.4283C26.9276 31.9287 23.5362 33.3335 20 33.3335Z" fill="#FF0000"/>
</svg>
