<svg width="50" height="50" viewBox="0 0 50 50" fill="none" xmlns="http://www.w3.org/2000/svg">
<path d="M38.375 19.1874C37.1006 16.262 34.9019 13.8353 32.1161 12.2794C29.3302 10.7235 26.1109 10.1242 22.9518 10.5735C19.7927 11.0228 16.8681 12.4958 14.6264 14.7667C12.3848 17.0376 10.9499 19.9811 10.5416 23.1458C8.55534 23.6214 6.81292 24.81 5.64524 26.4857C4.47757 28.1615 3.96596 30.2077 4.20759 32.2358C4.44921 34.2639 5.42724 36.1326 6.95593 37.4871C8.48462 38.8416 10.4575 39.5876 12.5 39.5833H35.4166C37.9153 39.5764 40.3282 38.6716 42.2153 37.0339C44.1025 35.3962 45.338 33.1347 45.6967 30.6619C46.0554 28.1891 45.5132 25.6698 44.1692 23.5634C42.8251 21.457 40.7687 19.9039 38.375 19.1874ZM35.4166 35.4166H12.5C11.3949 35.4166 10.3351 34.9776 9.55368 34.1962C8.77227 33.4148 8.33329 32.355 8.33329 31.2499C8.33329 30.1449 8.77227 29.0851 9.55368 28.3037C10.3351 27.5222 11.3949 27.0833 12.5 27.0833C13.0525 27.0833 13.5824 26.8638 13.9731 26.4731C14.3638 26.0824 14.5833 25.5525 14.5833 24.9999C14.5886 22.5359 15.4672 20.1536 17.063 18.2761C18.6588 16.3987 20.8685 15.1477 23.2994 14.7455C25.7304 14.3433 28.2252 14.8158 30.3407 16.0791C32.4562 17.3424 34.0554 19.3148 34.8541 21.6458C34.9763 21.9999 35.1918 22.3145 35.4778 22.5565C35.7637 22.7985 36.1097 22.9588 36.4791 23.0208C38.0062 23.3025 39.3737 24.1427 40.3152 25.3776C41.2567 26.6124 41.7048 28.1536 41.5722 29.7008C41.4396 31.2479 40.7357 32.6903 39.5978 33.747C38.4599 34.8036 36.9694 35.3988 35.4166 35.4166Z" fill="white"/>
</svg>
