<svg width="30" height="30" viewBox="0 0 30 30" fill="none" xmlns="http://www.w3.org/2000/svg">
<path d="M10.7865 15.0874L17.8615 22.1499C17.9777 22.267 18.116 22.36 18.2683 22.4235C18.4206 22.487 18.584 22.5196 18.749 22.5196C18.914 22.5196 19.0774 22.487 19.2297 22.4235C19.3821 22.36 19.5203 22.267 19.6365 22.1499C19.8693 21.9157 20 21.5989 20 21.2686C20 20.9384 19.8693 20.6216 19.6365 20.3874L13.449 14.1374L19.6365 7.94988C19.8693 7.71568 20 7.39887 20 7.06863C20 6.7384 19.8693 6.42159 19.6365 6.18738C19.5207 6.06927 19.3827 5.97531 19.2303 5.91094C19.078 5.84657 18.9144 5.81307 18.749 5.81238C18.5836 5.81307 18.42 5.84657 18.2677 5.91094C18.1153 5.97531 17.9773 6.06927 17.8615 6.18738L10.7865 13.2499C10.6596 13.3669 10.5584 13.509 10.4891 13.6671C10.4199 13.8252 10.3841 13.996 10.3841 14.1686C10.3841 14.3413 10.4199 14.512 10.4891 14.6701C10.5584 14.8283 10.6596 14.9703 10.7865 15.0874Z" fill="#016E44"/>
</svg>
