<svg width="30" height="30" viewBox="0 0 30 30" fill="none" xmlns="http://www.w3.org/2000/svg">
<path d="M19.2135 14.3126L12.1385 7.25012C12.0223 7.13296 11.884 7.03997 11.7317 6.97651C11.5794 6.91304 11.416 6.88037 11.251 6.88037C11.086 6.88037 10.9226 6.91304 10.7703 6.97651C10.6179 7.03997 10.4797 7.13296 10.3635 7.25012C10.1307 7.48432 10 7.80114 10 8.13137C10 8.4616 10.1307 8.77842 10.3635 9.01262L16.551 15.2626L10.3635 21.4501C10.1307 21.6843 10 22.0011 10 22.3314C10 22.6616 10.1307 22.9784 10.3635 23.2126C10.4793 23.3307 10.6173 23.4247 10.7697 23.4891C10.922 23.5534 11.0856 23.5869 11.251 23.5876C11.4164 23.5869 11.58 23.5534 11.7323 23.4891C11.8847 23.4247 12.0227 23.3307 12.1385 23.2126L19.2135 16.1501C19.3404 16.0331 19.4416 15.891 19.5109 15.7329C19.5802 15.5748 19.6159 15.404 19.6159 15.2314C19.6159 15.0587 19.5802 14.888 19.5109 14.7299C19.4416 14.5717 19.3404 14.4297 19.2135 14.3126Z" fill="#016E44"/>
</svg>
