<svg width="40" height="40" viewBox="0 0 40 40" fill="none" xmlns="http://www.w3.org/2000/svg">
<path d="M23.9333 23.7168C22.8192 24.6151 21.4311 25.105 20 25.105C18.5688 25.105 17.1808 24.6151 16.0667 23.7168C15.7263 23.4339 15.2875 23.2978 14.8468 23.3385C14.4061 23.3791 13.9996 23.5931 13.7167 23.9335C13.4338 24.2739 13.2977 24.7127 13.3383 25.1534C13.3789 25.5941 13.593 26.0006 13.9333 26.2835C15.6355 27.7045 17.7826 28.4829 20 28.4829C22.2174 28.4829 24.3644 27.7045 26.0667 26.2835C26.407 26.0006 26.6211 25.5941 26.6617 25.1534C26.7023 24.7127 26.5662 24.2739 26.2833 23.9335C26.1432 23.765 25.9713 23.6257 25.7774 23.5236C25.5835 23.4215 25.3714 23.3586 25.1532 23.3385C24.7125 23.2978 24.2737 23.4339 23.9333 23.7168ZM15.35 17.5668C15.6623 17.8772 16.0847 18.0515 16.525 18.0515C16.9653 18.0515 17.3877 17.8772 17.7 17.5668C18.0104 17.2546 18.1846 16.8321 18.1846 16.3918C18.1846 15.9515 18.0104 15.5291 17.7 15.2168C16.7462 14.3118 15.4815 13.8073 14.1667 13.8073C12.8518 13.8073 11.5871 14.3118 10.6333 15.2168C10.4589 15.3662 10.3171 15.5501 10.2171 15.7569C10.1171 15.9637 10.0609 16.1889 10.052 16.4184C10.0431 16.6479 10.0818 16.8768 10.1656 17.0907C10.2494 17.3046 10.3765 17.4988 10.5389 17.6612C10.7013 17.8237 10.8956 17.9508 11.1094 18.0346C11.3233 18.1184 11.5522 18.157 11.7817 18.1482C12.0113 18.1393 12.2365 18.0831 12.4433 17.983C12.65 17.883 12.8339 17.7413 12.9833 17.5668C13.1383 17.4106 13.3226 17.2866 13.5257 17.202C13.7288 17.1174 13.9466 17.0738 14.1667 17.0738C14.3867 17.0738 14.6045 17.1174 14.8076 17.202C15.0107 17.2866 15.195 17.4106 15.35 17.5668ZM29.3667 15.2168C28.4129 14.3118 27.1482 13.8073 25.8333 13.8073C24.5185 13.8073 23.2538 14.3118 22.3 15.2168C22.0269 15.5357 21.8843 15.9458 21.9005 16.3653C21.9167 16.7847 22.0906 17.1826 22.3874 17.4794C22.6842 17.7763 23.0821 17.9501 23.5016 17.9663C23.921 17.9826 24.3312 17.8399 24.65 17.5668C24.8049 17.4106 24.9893 17.2866 25.1924 17.202C25.3955 17.1174 25.6133 17.0738 25.8333 17.0738C26.0533 17.0738 26.2712 17.1174 26.4743 17.202C26.6774 17.2866 26.8617 17.4106 27.0167 17.5668C27.3289 17.8772 27.7513 18.0515 28.1917 18.0515C28.632 18.0515 29.0544 17.8772 29.3667 17.5668C29.6771 17.2546 29.8513 16.8321 29.8513 16.3918C29.8513 15.9515 29.6771 15.5291 29.3667 15.2168ZM20 3.3335C16.7036 3.3335 13.4813 4.31098 10.7405 6.14234C7.99966 7.97369 5.86346 10.5767 4.60199 13.6221C3.34053 16.6675 3.01048 20.0187 3.65357 23.2517C4.29665 26.4847 5.884 29.4544 8.21487 31.7853C10.5457 34.1162 13.5155 35.7035 16.7485 36.3466C19.9815 36.9897 23.3326 36.6596 26.378 35.3982C29.4235 34.1367 32.0265 32.0005 33.8578 29.2597C35.6892 26.5188 36.6667 23.2965 36.6667 20.0002C36.6667 17.8115 36.2356 15.6442 35.398 13.6221C34.5604 11.6 33.3327 9.76269 31.7851 8.21505C30.2375 6.66741 28.4001 5.43975 26.378 4.60217C24.356 3.76459 22.1887 3.3335 20 3.3335ZM20 33.3335C17.3629 33.3335 14.785 32.5515 12.5924 31.0864C10.3997 29.6213 8.69076 27.539 7.68159 25.1026C6.67243 22.6663 6.40838 19.9854 6.92285 17.399C7.43732 14.8125 8.7072 12.4368 10.5719 10.5721C12.4366 8.70737 14.8124 7.4375 17.3988 6.92303C19.9852 6.40856 22.6661 6.6726 25.1024 7.68177C27.5388 8.69094 29.6212 10.3999 31.0862 12.5926C32.5513 14.7852 33.3333 17.3631 33.3333 20.0002C33.3333 23.5364 31.9286 26.9278 29.4281 29.4283C26.9276 31.9287 23.5362 33.3335 20 33.3335Z" fill="#416800"/>
</svg>
