<svg width="70" height="70" viewBox="0 0 70 70" fill="none" xmlns="http://www.w3.org/2000/svg">
<path d="M46.6667 29.9543L32.0833 21.5252C31.197 21.0134 30.1916 20.7439 29.1682 20.7436C28.1447 20.7434 27.1392 21.0124 26.2526 21.5237C25.366 22.0349 24.6295 22.7705 24.1171 23.6564C23.6047 24.5424 23.3344 25.5475 23.3333 26.571V43.4293C23.3344 44.4523 23.6044 45.457 24.1163 46.3426C24.6283 47.2282 25.3641 47.9637 26.25 48.4752C27.1368 48.9871 28.1427 49.2567 29.1667 49.2567C30.1906 49.2567 31.1965 48.9871 32.0833 48.4752L46.6667 40.046C47.5506 39.5332 48.2844 38.7972 48.7945 37.9117C49.3045 37.0261 49.573 36.0221 49.573 35.0002C49.573 33.9782 49.3045 32.9742 48.7945 32.0887C48.2844 31.2031 47.5506 30.4671 46.6667 29.9543ZM43.75 35.0002L29.1667 43.4293V26.571L43.75 35.0002ZM35 5.8335C29.2314 5.8335 23.5923 7.54409 18.7959 10.749C13.9994 13.9538 10.2611 18.5091 8.05351 23.8386C5.84595 29.1681 5.26835 35.0325 6.39376 40.6903C7.51916 46.3481 10.297 51.5451 14.376 55.6241C18.4551 59.7031 23.6521 62.481 29.3099 63.6064C34.9676 64.7318 40.8321 64.1542 46.1616 61.9467C51.4911 59.7391 56.0463 56.0007 59.2512 51.2043C62.4561 46.4079 64.1667 40.7688 64.1667 35.0002C64.1667 31.1699 63.4122 27.3772 61.9465 23.8386C60.4807 20.2999 58.3323 17.0846 55.6239 14.3762C52.9156 11.6678 49.7003 9.51944 46.1616 8.05368C42.6229 6.58791 38.8302 5.8335 35 5.8335ZM35 58.3335C30.3851 58.3335 25.8738 56.965 22.0367 54.4011C18.1995 51.8372 15.2088 48.1931 13.4428 43.9294C11.6768 39.6658 11.2147 34.9743 12.115 30.4481C13.0153 25.9218 15.2376 21.7642 18.5008 18.501C21.7641 15.2378 25.9217 13.0155 30.4479 12.1152C34.9741 11.2149 39.6657 11.6769 43.9293 13.443C48.1929 15.209 51.837 18.1997 54.4009 22.0369C56.9648 25.874 58.3333 30.3853 58.3333 35.0002C58.3333 41.1885 55.875 47.1235 51.4992 51.4993C47.1233 55.8752 41.1884 58.3335 35 58.3335Z" fill="white"/>
</svg>
