<svg width="10" height="17" viewBox="0 0 10 17" fill="none" xmlns="http://www.w3.org/2000/svg">
<path d="M0.402476 9.27478L7.47748 16.3373C7.59368 16.4544 7.73193 16.5474 7.88426 16.6109C8.03658 16.6744 8.19996 16.707 8.36498 16.707C8.52999 16.707 8.69337 16.6744 8.8457 16.6109C8.99802 16.5474 9.13627 16.4544 9.25248 16.3373C9.48529 16.1031 9.61597 15.7863 9.61597 15.456C9.61597 15.1258 9.48529 14.809 9.25248 14.5748L3.06498 8.32478L9.25247 2.13728C9.48529 1.90308 9.61597 1.58627 9.61597 1.25603C9.61597 0.925801 9.48529 0.608988 9.25247 0.374785C9.13671 0.256674 8.99865 0.16271 8.84631 0.0983391C8.69396 0.03397 8.53036 0.00047121 8.36497 -0.000215421C8.19959 0.000471239 8.03599 0.03397 7.88364 0.0983392C7.7313 0.16271 7.59324 0.256674 7.47747 0.374785L0.402476 7.43728C0.275595 7.55434 0.174334 7.6964 0.105075 7.85453C0.0358154 8.01265 5.93363e-05 8.18341 5.93514e-05 8.35603C5.93665e-05 8.52866 0.0358155 8.69942 0.105075 8.85754C0.174334 9.01567 0.275595 9.15773 0.402476 9.27478Z" fill="white"/>
</svg>
